# xmcd CD database file
#
# Track frame offsets:
#	150
#	34029
#	50873
#	83202
#	96917
#	121076
#	151079
#	166412
#	196944
#	216499
#	242045
#
# Disc length: 3323 seconds
#
# Revision: 4
# Processed by: cddbd v1.5.1PL2 Copyright (c) Steve Scherf et al.
# Submitted via: CDex 1.51
#
DISCID=910cf90b
DTITLE=Jacky Terrasson - Jacky Terrasson
DYEAR=1994
DGENRE=Jazz
TTITLE0=I love Paris
TTITLE1=Just a blues
TTITLE2=My funny Valentine
TTITLE3=Hommage á Lili Boulanger
TTITLE4=Bye bye blackbird
TTITLE5=He goes on a trip
TTITLE6=I fall in love too easily
TTITLE7=Time after time
TTITLE8=For once in my life
TTITLE9=What a difference a day made
TTITLE10=Cumba's dance
EXTD=Blue Note\nCDP 7243 8 29351 2 4\n\nJacky Terrasson, piano\nUgonna Okegwo, bass\nLeon Parker, drums YEAR: 1994
EXTT0=
EXTT1=
EXTT2=
EXTT3=
EXTT4=
EXTT5=
EXTT6=
EXTT7=
EXTT8=
EXTT9=
EXTT10=
PLAYORDER=
